<?xml version="1.0" encoding="utf-8"?>
<!DOCTYPE svg PUBLIC "-//W3C//DTD SVG 1.1//EN" "http://www.w3.org/Graphics/SVG/1.1/DTD/svg11.dtd">
 <!-- Created with SVG-edit - http://svg-edit.googlecode.com/ -->
<svg version="1.1" id="Layer_1" xmlns="http://www.w3.org/2000/svg" xmlns:xlink="http://www.w3.org/1999/xlink" x="0px" y="0px"
	 width="55" height="55" viewBox="0 0 100 100" style="enable-background:new 0 0 100 100;" xml:space="preserve">
  <path stroke="#000000" id="svg_1" d="m72.286705,44.357697l0,-10.660572l-0.003502,0c-0.003525,-13.157946 -9.977119,-23.822124 -22.283127,-23.822124s-22.283304,10.667934 -22.283304,23.825951l0,0l0,10.656746l-8.059853,0l0,45.767303l60.686159,0l0,-45.767303l-8.056374,0zm-37.530334,-10.656746c0,0 0,0 0,0c0,-8.990229 6.839096,-16.302767 15.243706,-16.302767c8.411652,0 15.250587,7.312538 15.250587,16.298941c0,0 0,0 0,0l0,10.660572l-30.494293,0l0,-10.656746z" stroke-width="5" fill="#000000"/>
  <circle id="svg_3" r="10.350121" cy="57.5" cx="50" stroke-linecap="null" stroke-linejoin="null" stroke-dasharray="null" stroke-width="5" stroke="#000000" fill="#ffffff"/>
  <path id="svg_6" d="m46.150002,63.950024l-4.775002,17.450001l17.25,0l-5,-17.500008l-7.474998,0.050007z" stroke-linecap="null" stroke-linejoin="null" stroke-dasharray="null" stroke-width="0" stroke="#000000" fill="#ffffff"/>
</svg>

